<?xml version="1.0" encoding="UTF-8" standalone="no"?>
<svg
   xmlns:dc="http://purl.org/dc/elements/1.1/"
   xmlns:cc="http://creativecommons.org/ns#"
   xmlns:rdf="http://www.w3.org/1999/02/22-rdf-syntax-ns#"
   xmlns:svg="http://www.w3.org/2000/svg"
   xmlns="http://www.w3.org/2000/svg"
   viewBox="0 0 894.71997 616"
   height="616"
   width="894.71997"
   xml:space="preserve"
   id="svg2"
   version="1.1"><metadata
     id="metadata8"><rdf:RDF><cc:Work
         rdf:about=""><dc:format>image/svg+xml</dc:format><dc:type
           rdf:resource="http://purl.org/dc/dcmitype/StillImage" /><dc:title></dc:title></cc:Work></rdf:RDF></metadata><defs
     id="defs6"><clipPath
       id="clipPath18"
       clipPathUnits="userSpaceOnUse"><path
         style="clip-rule:evenodd"
         id="path16"
         d="M 0,0 H 2795.8333 V 1923.8209 H 0 Z" /></clipPath><clipPath
       id="clipPath30"
       clipPathUnits="userSpaceOnUse"><path
         style="clip-rule:evenodd"
         id="path28"
         d="M 0,0 H 2795.8333 V 1923.8209 H 0 Z" /></clipPath></defs><g
     transform="matrix(0.31999998,0,0,0.31999998,0,1.54e-5)"
     id="g10"><g
       id="g12"><g
         clip-path="url(#clipPath18)"
         id="g14"><g
           transform="scale(2.9966059)"
           id="g20"><path
             id="path22"
             style="fill:#ffffff;fill-opacity:1;fill-rule:nonzero;stroke:none"
             d="M 0,0 H 933 V 642 H 0 Z" /></g></g></g><g
       id="g24"><g
         clip-path="url(#clipPath30)"
         id="g26"><g
           transform="scale(2.9966059)"
           id="g32"><path
             id="path34"
             style="fill:#000000;fill-opacity:1;fill-rule:nonzero;stroke:none"
             d="m 395.00262,101 -6.15811,0.0161 -0.005,-1.999997 6.15812,-0.01608 0.005,1.999997 z m -12.23602,0.0642 -6.01916,0.0804 -0.0267,-1.999816 6.01917,-0.0804 0.0267,1.999816 z m -11.95761,0.19275 -5.88022,0.14473 -0.0492,-1.999389 5.88022,-0.14473 z m -11.84692,0.32687 -6.12616,0.22539 -0.0736,-1.99864 6.12616,-0.225395 0.0735,1.998645 z m -12.15995,0.4869 -5.96771,0.29874 -0.1,-1.9975 5.96771,-0.29874 z m -11.84225,0.63337 -5.89664,0.378 -0.12793,-1.99589 5.89664,-0.37802 z m -12.01581,0.81683 -6.04379,0.48203 -0.159,-1.99366 6.04379,-0.48204 z m -11.97998,1.00471 -5.86188,0.56623 -0.19232,-1.99074 5.86188,-0.56623 z m -11.76663,1.18936 c -2.0481,0.22563 -4.07807,0.45927 -6.08991,0.70092 l -0.23852,-1.98573 c 2.01794,-0.2424 4.05441,-0.47678 6.10943,-0.70317 z m -12.0744,1.45034 c -1.97654,0.25779 -3.93622,0.52377 -5.87909,0.79792 l -0.27948,-1.98038 c 1.94961,-0.27511 3.91626,-0.54202 5.8999,-0.80074 z m -11.6528,1.64433 c -2.02866,0.30873 -4.03748,0.6266 -6.02643,0.95362 l -0.32447,-1.9735 c 1.99726,-0.32839 4.01392,-0.64751 6.04999,-0.95736 z m -12.0142,1.97639 c -1.97531,0.35029 -3.93032,0.70998 -5.86508,1.07909 l -0.37481,-1.96457 c 1.94366,-0.37081 3.90722,-0.73207 5.89065,-1.0838 z m -11.60749,2.21451 c -1.9877,0.40709 -3.95371,0.82473 -5.89801,1.25288 l -0.43012,-1.9532 c 1.95375,-0.43023 3.92935,-0.8499 5.92682,-1.259 z m -11.83213,2.60837 c -1.95451,0.4629 -3.88469,0.93666 -5.79051,1.42129 l -0.49289,-1.93831 c 1.91667,-0.48737 3.8575,-0.96375 5.8225,-1.42914 z m -11.43739,2.90835 c -1.97322,0.53797 -3.91887,1.0881 -5.83694,1.6504 l -0.56263,-1.91924 c 1.93036,-0.56589 3.8882,-1.11947 5.87351,-1.66074 z m -11.6317,3.4125 c -1.9037,0.60032 -3.77897,1.2134 -5.62585,1.83923 l -0.64188,-1.89419 c 1.86026,-0.63037 3.74901,-1.24786 5.66626,-1.85245 z m -11.15109,3.78038 c -1.9424,0.70741 -3.85208,1.43007 -5.72905,2.16798 l -0.73178,-1.86132 c 1.8922,-0.7439 3.81767,-1.47254 5.77644,-2.18592 z m -11.25913,4.42653 c -1.80976,0.76773 -3.58679,1.55073 -5.33107,2.349 l -0.83227,-1.81861 c 1.7614,-0.8061 3.55548,-1.59663 5.38228,-2.37158 z m -10.82209,4.96603 c -1.81269,0.89974 -3.58719,1.81754 -5.32354,2.75339 l -0.94891,-1.76056 c 1.75571,-0.9463 3.55013,-1.8744 5.38326,-2.78427 z m -10.41327,5.6126 c -1.76317,1.0325 -3.48252,2.08507 -5.15807,3.15768 l -1.07831,-1.68442 c 1.69779,-1.08688 3.4397,-2.15326 5.22573,-3.19912 z m -10.12068,6.48304 c -1.60892,1.12896 -3.17255,2.27831 -4.69088,3.44808 l -1.22061,-1.58432 c 1.54207,-1.18808 3.12964,-2.35506 4.76271,-3.50093 z m -9.40166,7.26654 c -1.51982,1.29708 -2.98828,2.61773 -4.40538,3.96192 l -1.37641,-1.45105 c 1.44252,-1.36833 2.937,-2.71239 4.48345,-4.03217 z m -8.57372,8.14049 c -1.38107,1.46486 -2.70533,2.95583 -3.97279,4.47292 l -1.53485,-1.28229 c 1.29292,-1.54759 2.64374,-3.06845 4.05244,-4.56261 z m -7.60356,9.10094 c -1.18318,1.60919 -2.30656,3.24571 -3.37012,4.90956 l -1.68515,-1.07718 c 1.08696,-1.70047 2.23494,-3.37285 3.44394,-5.01713 z m -6.39494,10.00758 c -0.94978,1.7302 -1.83919,3.48844 -2.66824,5.27471 l -1.81413,-0.84198 c 0.84798,-1.82701 1.7577,-3.62538 2.72916,-5.39513 z m -4.97997,10.73244 c -0.70986,1.84737 -1.35907,3.72313 -1.94764,5.62729 l -1.91079,-0.59061 c 0.60182,-1.94702 1.26565,-3.86503 1.9915,-5.75403 z m -3.50145,11.30019 c -0.45985,1.91832 -0.8615,3.86369 -1.20495,5.8361 l -1.97035,-0.34311 c 0.35064,-2.01365 0.76078,-4.00006 1.2304,-5.95921 z m -2.04538,11.69806 c -0.21983,1.9382 -0.38639,3.90129 -0.49969,5.88925 l -1.99677,-0.1138 c 0.11542,-2.02519 0.28515,-4.02548 0.5092,-6.00086 z m -0.67976,11.92848 -6.4e-4,0.38853 -2,-0.003 6.4e-4,-0.38854 2,0.003 z" /><path
             id="path36"
             style="fill:#000000;fill-opacity:1;fill-rule:nonzero;stroke:none"
             d="m 119,233.75999 -4,-8 4,2 4,-2 z" /><path
             id="path38"
             style="fill:none;stroke:#000000;stroke-width:1;stroke-linecap:butt;stroke-linejoin:miter;stroke-miterlimit:10;stroke-dasharray:none;stroke-opacity:1"
             d="m 119,233.75999 -4,-8 4,2 4,-2 z" /></g><g
           transform="matrix(2.9966059,0,0,2.9966059,827.06323,260.70471)"
           id="g40"><path
             id="path42"
             style="fill:#ffffff;fill-opacity:1;fill-rule:nonzero;stroke:none"
             d="M 0,0 H 70 V 28 H 0 Z" /><text
             id="text46"
             style="font-variant:normal;font-weight:normal;font-size:12px;font-family:Helvetica;-inkscape-font-specification:Helvetica;writing-mode:lr-tb;fill:#000000;fill-opacity:1;fill-rule:nonzero;stroke:none"
             transform="translate(0,11)"><tspan
               id="tspan44"
               y="0"
               x="0 3.9960938 10.669922 16.669922 23.34375 26.009766 32.009766 38.683594 42.017578 48.691406 51.357422 58.03125 64.03125">receive block</tspan></text>
<text
             id="text50"
             style="font-variant:normal;font-weight:normal;font-size:12px;font-family:Helvetica;-inkscape-font-specification:Helvetica;writing-mode:lr-tb;fill:#000000;fill-opacity:1;fill-rule:nonzero;stroke:none"
             transform="translate(23.34375,25)"><tspan
               id="tspan48"
               y="0"
               x="0 6.6738281 13.347656 16.681641">data</tspan></text>
</g><g
           transform="scale(2.9966059)"
           id="g52"><path
             id="path54"
             style="fill:#000000;fill-opacity:1;fill-rule:nonzero;stroke:none"
             d="m 566,144.99857 0.009,6.31521 -2,0.003 -0.009,-6.31522 2,-0.003 z m 0.0364,12.455 0.0455,5.97671 -2,0.0152 -0.0455,-5.97671 z m 0.10894,11.7772 0.0857,5.87111 -1.99976,0.0292 -0.0857,-5.87111 1.99975,-0.0292 z m 0.20337,12.14766 0.14209,6.06018 -1.99939,0.0469 -0.14209,-6.06018 z m 0.30805,11.88462 0.19684,5.78428 -1.9989,0.068 -0.19684,-5.78429 1.9989,-0.068 z m 0.45318,12.0955 0.29065,6.01152 -1.99768,0.0966 -0.29065,-6.01152 z m 0.61432,11.69588 c 0.13105,2.12849 0.2696,4.1875 0.41577,6.17705 l -1.99462,0.14648 c -0.14667,-1.99733 -0.28577,-4.06419 -0.41736,-6.20058 z m 0.90332,12.24345 c 0.17066,1.94185 0.34973,3.80756 0.5373,5.59711 l -1.98914,0.2085 c -0.18854,-1.79883 -0.36865,-3.67568 -0.54047,-5.63056 z m 1.27161,11.88005 c 0.26508,2.03304 0.54388,3.94072 0.83643,5.72306 l -1.97364,0.32397 c -0.29583,-1.80199 -0.57782,-3.73148 -0.84594,-5.78845 z m 1.98041,11.73566 c 0.44757,2.01598 0.9198,3.78792 1.41668,5.31584 l -1.90197,0.61853 c -0.51679,-1.5889 -1.00586,-3.42254 -1.46723,-5.50093 z m 3.80334,10.50105 C 576.45349,264.47156 577.22583,265 578,265 c 0.91486,0 1.7865,0.2384 2.61499,0.71521 l -0.99756,1.7334 C 579.09778,267.14954 578.55865,267 578,267 c -1.45215,0 -2.76318,-0.8024 -3.93317,-2.4072 l 1.61609,-1.17816 z m 9.03327,7.45282 c 0.74756,1.59625 1.43628,3.53351 2.06622,5.8118 l -1.92773,0.5329 c -0.59992,-2.1698 -1.24988,-4.00195 -1.94977,-5.49649 z m 3.38537,11.51673 c 0.36084,1.85675 0.69647,3.8656 1.00684,6.02655 l -1.97974,0.2843 c -0.30572,-2.12891 -0.63586,-4.10532 -0.99035,-5.9292 z m 1.75922,12.00799 c 0.20929,1.90375 0.40326,3.90317 0.58203,5.99829 l -1.9928,0.16999 c -0.17743,-2.07944 -0.36987,-4.06269 -0.57727,-5.94971 z m 1.03119,11.94708 c 0.13202,1.98569 0.25238,4.04737 0.36108,6.185 l -1.99743,0.10156 c -0.10816,-2.12762 -0.22791,-4.17892 -0.35926,-6.15393 z m 0.61963,11.97818 c 0.0769,1.98221 0.14483,4.02555 0.20379,6.13001 l -1.99926,0.056 c -0.0588,-2.09818 -0.12647,-4.13437 -0.20307,-6.10852 l 1.99854,-0.0775 z m 0.34472,12.16034 0.088,5.85422 -1.99976,0.0301 -0.088,-5.85422 1.99975,-0.0301 z m 0.13514,11.97562 0.009,4.07449 -2,0.004 -0.009,-4.07449 z" /><path
             id="path56"
             style="fill:none;stroke:#000000;stroke-width:1;stroke-linecap:butt;stroke-linejoin:miter;stroke-miterlimit:10;stroke-dasharray:none;stroke-opacity:1"
             d="m 588.33002,340.76001 2.66998,8 2.66998,-8" /></g><g
           transform="matrix(2.9966059,0,0,2.9966059,1600.1875,743.15826)"
           id="g58"><path
             id="path60"
             style="fill:#ffffff;fill-opacity:1;fill-rule:nonzero;stroke:none"
             d="M 0,0 H 62 V 28 H 0 Z" /><text
             id="text64"
             style="font-variant:normal;font-weight:normal;font-size:12px;font-family:Helvetica;-inkscape-font-specification:Helvetica;writing-mode:lr-tb;fill:#000000;fill-opacity:1;fill-rule:nonzero;stroke:none"
             transform="translate(0,11)"><tspan
               id="tspan62"
               y="0"
               x="0 3.3339844 7.3300781 14.003906 20.677734 26.677734 33.351562 39.351562 42.685547 45.351562 52.025391 58.699219">transaction </tspan></text>
<text
             id="text68"
             style="font-variant:normal;font-weight:normal;font-size:12px;font-family:Helvetica;-inkscape-font-specification:Helvetica;writing-mode:lr-tb;fill:#000000;fill-opacity:1;fill-rule:nonzero;stroke:none"
             transform="translate(11.015625,25)"><tspan
               id="tspan66"
               y="0"
               x="0 3.9960938 10.669922 17.34375 24.017578 30.691406 36.691406">request</tspan></text>
</g><g
           transform="matrix(2.9966059,0,0,2.9966059,1.4983029,1.4983029)"
           id="g70"><path
             id="path72"
             style="fill:#000000;fill-opacity:1;fill-rule:nonzero;stroke:none"
             d="m 387,142.5 c -5.14511,0 -10.15189,0.0453 -15.02032,0.13588 l -0.093,-4.99915 C 376.7858,137.54558 381.82358,137.5 387,137.5 Z m -29.98981,0.57481 c -5.14895,0.2097 -10.12201,0.47678 -14.91913,0.80123 l -0.3374,-4.98862 c 4.84119,-0.32744 9.85886,-0.59692 15.05304,-0.80846 z m -29.77017,2.04558 c -5.1506,0.52191 -10.06131,1.12175 -14.73212,1.7995 l -0.71801,-4.94818 c 4.74176,-0.68806 9.72378,-1.29668 14.94604,-1.82584 z m -29.39532,4.34396 c -5.17875,1.06487 -9.97788,2.25126 -14.39746,3.55919 l -1.41883,-4.79446 c 4.55536,-1.3481 9.49176,-2.56885 14.80921,-3.66225 z m -28.13883,8.5548 c -4.87222,2.1826 -9.01083,4.58928 -12.4158,7.22003 l -3.05696,-3.95663 c 3.71861,-2.87307 8.19484,-5.48189 13.42863,-7.82648 z m -21.4655,17.61958 C 246.41345,179.1722 245.5,183.01262 245.5,187.16 h -5 c 0,-4.95814 1.09964,-9.56404 3.2989,-13.81765 z" /><path
             id="path74"
             style="fill:#000000;fill-opacity:1;fill-rule:nonzero;stroke:none"
             d="m 243,195.41 -5.5,-11 5.5,2.75 5.5,-2.75 z" /><path
             id="path76"
             style="fill:none;stroke:#000000;stroke-width:1;stroke-linecap:butt;stroke-linejoin:miter;stroke-miterlimit:10;stroke-dasharray:none;stroke-opacity:1"
             d="m 243,195.41 -5.5,-11 5.5,2.75 5.5,-2.75 z" /></g><g
           transform="matrix(2.9966059,0,0,2.9966059,734.16846,401.5452)"
           id="g78"><path
             id="path80"
             style="fill:#ffffff;fill-opacity:1;fill-rule:nonzero;stroke:none"
             d="M 0,0 H 79 V 14 H 0 Z" /><text
             id="text84"
             style="font-variant:normal;font-weight:normal;font-size:12px;font-family:Helvetica;-inkscape-font-specification:Helvetica;writing-mode:lr-tb;fill:#000000;fill-opacity:1;fill-rule:nonzero;stroke:none"
             transform="translate(0,11)"><tspan
               id="tspan82"
               y="0"
               x="0 2.6660156 9.3398438 15.339844 22.013672 32.009766 34.675781 41.349609 48.023438 51.357422 58.03125 60.697266 67.371094 73.371094">incoming block</tspan></text>
</g><g
           transform="matrix(2.9966059,0,0,2.9966059,1.4983029,1.4983029)"
           id="g86"><path
             id="path88"
             style="fill:#ffffff;fill-opacity:1;fill-rule:nonzero;stroke:none"
             d="m 419.25,46 c -53,0 -66.25,45 -23.85001,54 -42.39999,19.8 5.30002,63 39.75,45 C 459,181 538.5,181 565,145 618,145 618,109 584.88,91 618,55 565,19 518.63,37 485.5,10 432.5,10 419.25,46 Z" /><path
             id="path90"
             style="fill:none;stroke:#000000;stroke-width:1;stroke-linecap:butt;stroke-linejoin:miter;stroke-miterlimit:10;stroke-dasharray:none;stroke-opacity:1"
             d="m 419.25,46 c -53,0 -66.25,45 -23.85001,54 -42.39999,19.8 5.30002,63 39.75,45 C 459,181 538.5,181 565,145 618,145 618,109 584.88,91 618,55 565,19 518.63,37 485.5,10 432.5,10 419.25,46 Z" /></g><g
           transform="matrix(2.9966059,0,0,2.9966059,1285.544,239.72847)"
           id="g92"><text
             id="text96"
             style="font-variant:normal;font-weight:normal;font-size:21px;font-family:Helvetica;-inkscape-font-specification:Helvetica;writing-mode:lr-tb;fill:#000000;fill-opacity:1;fill-rule:nonzero;stroke:none"
             transform="translate(0.875,19)"><tspan
               id="tspan94"
               y="0"
               x="0 14.006836 21 32.679199 44.358398 56.037598 66.537598 78.216797 88.716797 94.55127 106.23047">Broadcaster</tspan></text>
</g><g
           transform="scale(2.9966059)"
           id="g98"><path
             id="path100"
             style="fill:none;stroke:#000000;stroke-width:1;stroke-linecap:butt;stroke-linejoin:miter;stroke-miterlimit:10;stroke-dasharray:none;stroke-opacity:1"
             d="m 171,574 c 90,0 135,-29.91998 135,-89.76001" /><path
             id="path102"
             style="fill:#000000;fill-opacity:1;fill-rule:nonzero;stroke:none"
             d="m 306,478.23999 4,8 -4,-2 -4,2 z" /><path
             id="path104"
             style="fill:none;stroke:#000000;stroke-width:1;stroke-linecap:butt;stroke-linejoin:miter;stroke-miterlimit:10;stroke-dasharray:none;stroke-opacity:1"
             d="m 306,478.23999 4,8 -4,-2 -4,2 z" /><path
             id="path106"
             style="fill:none;stroke:#000000;stroke-width:1;stroke-linecap:butt;stroke-linejoin:miter;stroke-miterlimit:10;stroke-dasharray:none;stroke-opacity:1"
             d="m 171,596 c 246.66669,0 370,-47.25336 370,-141.76001" /><path
             id="path108"
             style="fill:#000000;fill-opacity:1;fill-rule:nonzero;stroke:none"
             d="m 541,448.23999 4,8 -4,-2 -4,2 z" /><path
             id="path110"
             style="fill:none;stroke:#000000;stroke-width:1;stroke-linecap:butt;stroke-linejoin:miter;stroke-miterlimit:10;stroke-dasharray:none;stroke-opacity:1"
             d="m 541,448.23999 4,8 -4,-2 -4,2 z" /></g><g
           transform="matrix(2.9966059,0,0,2.9966059,1.4983029,1.4983029)"
           id="g112"><path
             id="path114"
             style="fill:#000000;fill-opacity:1;fill-rule:nonzero;stroke:none"
             d="m 171,616 h 15 v 5 h -15 m 30,-5 h 15 v 5 h -15 m 30,-5 h 15 v 5 h -15 m 30,-5 h 15 v 5 h -15 m 30,-5 h 15 v 5 h -15 m 30,-5 h 15 v 5 h -15 m 30,-5 h 15 v 5 h -15 m 30,-5 h 15 v 5 h -15 m 30,-5 h 15 v 5 h -15 m 29.99997,-5 h 15 v 5 h -15 m 30,-5 h 15 v 5 h -15 m 30,-5 H 516 v 5 H 500.99997 M 531,616 h 15 v 5 h -15 m 30,-5 h 15 v 5 h -15 m 30,-5 h 15 v 5 h -15 m 30,-5 h 15 v 5 h -15 m 30,-5 h 15 v 5 h -15 m 30,-5 h 14.99994 v 5 H 681 m 29.99994,-5 h 15 v 5 h -15 m 30,-5 h 15 v 5 h -15" /><path
             id="path116"
             style="fill:#000000;fill-opacity:1;fill-rule:nonzero;stroke:none"
             d="m 775.40997,618.5 -11,5.5 2.75,-5.5 -2.75,-5.5 z" /><path
             id="path118"
             style="fill:none;stroke:#000000;stroke-width:1;stroke-linecap:butt;stroke-linejoin:miter;stroke-miterlimit:10;stroke-dasharray:none;stroke-opacity:1"
             d="m 775.40997,618.5 -11,5.5 2.75,-5.5 -2.75,-5.5 z" /></g><g
           transform="matrix(2.9966059,0,0,2.9966059,1309.5167,1818.9398)"
           id="g120"><path
             id="path122"
             style="fill:#ffffff;fill-opacity:1;fill-rule:nonzero;stroke:none"
             d="M 0,0 H 78 V 25 H 0 Z" /><text
             id="text126"
             style="font-variant:normal;font-weight:normal;font-size:21px;font-family:Helvetica;-inkscape-font-specification:Helvetica;writing-mode:lr-tb;fill:#000000;fill-opacity:1;fill-rule:nonzero;stroke:none"
             transform="translate(0,19)"><tspan
               id="tspan124"
               y="0"
               x="0 5.8344727 17.513672 23.348145 35.027344 42.020508 49.013672 60.692871 72.37207">Interrupt</tspan></text>
</g><g
           transform="scale(2.9966059)"
           id="g128"><path
             id="path130"
             style="fill:#000000;fill-opacity:1;fill-rule:nonzero;stroke:none"
             d="m 43.000004,550.99792 0.01277,-6.1726 1.999992,0.004 -0.01277,6.17261 -1.999992,-0.004 z m 0.05111,-12.31451 0.06383,-6.09442 1.999893,0.021 -0.06383,6.09442 z m 0.153324,-12.1582 0.114895,-6.01612 1.999634,0.0382 -0.114895,6.01612 z m 0.255528,-12.00196 0.165958,-5.9378 1.999222,0.0559 -0.165959,5.93786 -1.999221,-0.0559 z m 0.35775,-11.84567 0.217021,-5.85956 1.998627,0.074 -0.217022,5.85956 z m 0.461826,-11.7316 0.287098,-6.16574 1.997833,0.093 -0.287098,6.16574 z m 0.603775,-12.29712 0.345207,-6.07669 1.99678,0.11347 -0.345207,6.07669 z m 0.720123,-12.11926 0.40332,-5.98761 1.995476,0.1344 -0.40332,5.98761 z m 0.836479,-11.9415 0.461434,-5.89856 1.993911,0.15601 -0.461433,5.89856 z m 0.952851,-11.76367 0.519542,-5.80951 1.992051,0.17816 -0.519543,5.80951 z m 1.101696,-11.91641 0.620216,-6.10934 1.989777,0.20202 -0.620217,6.10935 z m 1.274975,-12.18033 0.686592,-6.0076 1.987068,0.22711 -0.686592,6.0076 z m 1.407936,-11.97729 0.752967,-5.90592 1.983941,0.25293 -0.752968,5.90592 z m 1.540916,-11.77426 0.819344,-5.80417 1.980362,0.27954 -0.819344,5.80417 z m 1.683724,-11.63587 0.949489,-6.09994 1.976204,0.30761 -0.94949,6.09995 z m 1.93946,-12.15671 1.025505,-5.98349 1.97126,0.33783 -1.025505,5.98349 z m 2.091816,-11.92428 1.101517,-5.86695 1.965652,0.36908 -1.101516,5.86695 z m 2.244198,-11.69178 1.177528,-5.75045 1.959343,0.40124 -1.177528,5.75046 z m 2.400299,-11.47619 c 0.441181,-2.02353 0.889729,-4.03632 1.345646,-6.03836 l 1.950073,0.44409 c -0.454513,1.99588 -0.901726,4.00262 -1.341629,6.02029 z m 2.734966,-12.01007 c 0.470787,-1.98108 0.948456,-3.94943 1.433022,-5.90509 l 1.941299,0.48102 c -0.483047,1.94955 -0.959213,3.91171 -1.428505,5.88647 z m 2.909729,-11.74359 c 0.49952,-1.93509 1.006325,-3.85907 1.520409,-5.77188 l 1.931458,0.5191 c -0.512345,1.90634 -1.017457,3.82391 -1.515343,5.75265 z m 3.084526,-11.47715 c 0.528634,-1.89056 1.064568,-3.77011 1.607819,-5.63867 l 1.920487,0.55835 c -0.541489,1.86249 -1.075554,3.73545 -1.602189,5.6189 z m 3.315346,-11.39587 c 0.597534,-1.97516 1.203026,-3.93643 1.816475,-5.88382 l 1.907593,0.60089 c -0.611137,1.94003 -1.214386,3.89404 -1.809746,5.86203 z m 3.682999,-11.6915 c 0.631309,-1.92557 1.270157,-3.83609 1.91655,-5.7315 l 1.892959,0.64556 c -0.644279,1.8892 -1.280624,3.79221 -1.909042,5.70899 z m 3.883156,-11.38675 c 0.664039,-1.87283 1.33625,-3.73251 2.016647,-5.57904 l 1.876663,0.69147 c -0.677566,1.83884 -1.346992,3.69083 -2.008285,5.55591 z m 4.083381,-11.08188 c 0.715699,-1.86975 1.440331,-3.72647 2.173905,-5.57017 l 1.858307,0.73938 c -0.730194,1.83523 -1.451653,3.68382 -2.164368,5.54576 z m 4.488221,-11.27189 c 0.781066,-1.88643 1.571495,-3.75807 2.371284,-5.61493 l 1.836868,0.79117 c -0.796157,1.84848 -1.582916,3.71144 -2.360283,5.58886 z m 4.799575,-11.14321 c 0.819344,-1.8292 1.647774,-3.64303 2.485291,-5.44151 l 1.81305,0.8443 c -0.833459,1.78975 -1.657815,3.59467 -2.473084,5.41478 z m 5.027581,-10.79635 c 0.85683,-1.77025 1.72327,-3.52626 2.59932,-5.26805 l 1.78673,0.89865 c -0.87129,1.73234 -1.73324,3.47926 -2.58583,5.24074 z m 5.38002,-10.6872 c 0.9504,-1.81556 1.91133,-3.61453 2.88278,-5.39689 l 1.75611,0.95712 c -0.96593,1.77223 -1.92159,3.56134 -2.86698,5.36732 z m 5.82976,-10.69615 c 0.99336,-1.75072 1.99708,-3.4846 3.01118,-5.20164 l 1.72207,1.01706 c -1.00811,1.70695 -2.00603,3.4308 -2.99375,5.17155 z m 6.08656,-10.30565 c 1.0358,-1.68501 2.08234,-3.35379 3.1396,-5.00631 l 1.68471,1.07785 c -1.05082,1.64247 -2.09098,3.30108 -3.12049,4.97583 z m 6.42746,-10.04107 c 1.1346,-1.7022 2.28118,-3.38662 3.43974,-5.05326 l 1.64218,1.14157 c -1.15083,1.65551 -2.29007,3.32915 -3.41772,5.02094 z m 6.95048,-9.9984 c 1.18234,-1.63075 2.37627,-3.24313 3.58179,-4.83714 l 1.59518,1.20639 c -1.19713,1.58294 -2.38305,3.18452 -3.55777,4.80473 z m 7.2346,-9.56623 c 1.22933,-1.55815 2.47062,-3.09845 3.72385,-4.62089 l 1.54413,1.27109 c -1.24428,1.51158 -2.47688,3.0411 -3.69782,4.5886 z m 7.60032,-9.22862 c 1.3263,-1.54248 2.66557,-3.06572 4.01779,-4.5697 l 1.48727,1.33719 c -1.3426,1.4933 -2.67213,3.00546 -3.98858,4.53647 z m 8.11221,-9.02273 c 1.37776,-1.46514 2.76811,-2.91057 4.17102,-4.33632 l 1.4256,1.40274 c -1.39247,1.41514 -2.77236,2.84971 -4.13965,4.30369 z m 8.41858,-8.55582 c 1.42866,-1.38713 2.87005,-2.75473 4.32417,-4.1028 l 1.35974,1.46668 c -1.44291,1.33769 -2.87317,2.69471 -4.29072,4.07106 z m 8.80632,-8.16072 c 1.5132,-1.33767 3.03967,-2.65495 4.57945,-3.95185 l 1.28842,1.52971 c -1.52812,1.28707 -3.04254,2.59393 -4.54326,3.92058 z m 9.23887,-7.78159 c 1.56615,-1.2559 3.14594,-2.49172 4.7394,-3.70746 l 1.21313,1.59007 c -1.58052,1.20585 -3.14761,2.43174 -4.7013,3.67767 z m 9.55867,-7.29271 c 1.62107,-1.17567 3.2556,-2.33102 4.9036,-3.46607 l 1.13443,1.64714 c -1.63463,1.12582 -3.25591,2.27181 -4.86383,3.43796 z m 9.90333,-6.82015 c 1.67979,-1.09738 3.37321,-2.17431 5.08023,-3.23082 l 1.05255,1.70063 c -1.69319,1.04795 -3.37284,2.11613 -5.03894,3.20456 z m 10.2409,-6.338224 c 1.73357,-1.015244 3.48061,-2.009956 5.24109,-2.984131 l 0.96832,1.749954 c -1.74632,0.966347 -3.47923,1.953011 -5.1987,2.959992 z m 10.5625,-5.844856 c 1.77121,-0.924622 3.5555,-1.829041 5.35286,-2.713257 l 0.88284,1.794601 c -1.78296,0.877106 -3.55301,1.774308 -5.31013,2.691605 z m 10.75585,-5.292061 c 1.8134,-0.839348 3.64036,-1.658959 5.48091,-2.458817 l 0.79715,1.834275 c -1.82631,0.793693 -3.63898,1.60688 -5.43801,2.43956 z m 11.03979,-4.79773 c 1.86646,-0.759849 3.74538,-1.499511 5.63678,-2.218979 l 0.71109,1.869324 c -1.8773,0.714096 -3.74188,1.448105 -5.59375,2.202027 z M 254.5849,77.3451 c 1.86139,-0.65966 3.73431,-1.300285 5.61877,-1.921867 l 0.62653,1.899338 c -1.87064,0.617012 -3.72971,1.252899 -5.57721,1.907646 z m 11.30533,-3.729171 c 1.90811,-0.583817 3.82797,-1.148713 5.75961,-1.694695 l 0.54401,1.924591 c -1.91773,0.542053 -3.82389,1.102921 -5.71848,1.682594 z m 11.59225,-3.276726 c 1.95627,-0.508507 3.92481,-0.998284 5.90564,-1.469345 l 0.46271,1.94574 c -1.96738,0.467857 -3.92242,0.954277 -5.86517,1.459274 z m 11.8505,-2.818794 c 1.91598,-0.414467 3.8435,-0.811867 5.78256,-1.192215 l 0.38495,1.9626 c -1.92627,0.377846 -3.84116,0.772644 -5.74466,1.184403 z m 11.63168,-2.281533 c 1.96115,-0.346008 3.93308,-0.674827 5.91583,-0.986457 l 0.31055,1.975738 c -1.97025,0.30967 -3.92987,0.636429 -5.87885,0.980293 z m 11.89829,-1.870098 c 2.00506,-0.277378 4.02139,-0.537632 6.04898,-0.780761 l 0.23809,1.985775 c -2.01586,0.241737 -4.0202,0.50045 -6.01303,0.776123 z m 12.15966,-1.458198 c 1.93866,-0.197598 3.88755,-0.379879 5.84665,-0.546845 l 0.16986,1.992775 c -1.94803,0.166027 -3.88592,0.347283 -5.81369,0.543762 z m 11.75287,-1.00166 c 1.97885,-0.136306 3.96744,-0.257263 5.96576,-0.362873 l 0.10553,1.997215 c -1.98776,0.10505 -3.96573,0.225358 -5.93384,0.360928 z m 11.99109,-0.633785 c 2.01801,-0.07496 4.0463,-0.134605 6.0849,-0.17894 l 0.0435,1.999527 c -2.02838,0.04412 -4.04642,0.103459 -6.05414,0.178032 l -0.0742,-1.998619 z m 12.23267,-0.265976 2.75744,-0.0092 0.007,1.999992 -2.75745,0.0092 -0.007,-1.999992 z" /><path
             id="path132"
             style="fill:#000000;fill-opacity:1;fill-rule:nonzero;stroke:none"
             d="m 369.76001,61 -8,4 2,-4 -2,-4 z" /><path
             id="path134"
             style="fill:none;stroke:#000000;stroke-width:1;stroke-linecap:butt;stroke-linejoin:miter;stroke-miterlimit:10;stroke-dasharray:none;stroke-opacity:1"
             d="m 369.76001,61 -8,4 2,-4 -2,-4 z" /></g><g
           transform="matrix(2.9966059,0,0,2.9966059,107.87781,892.98853)"
           id="g136"><path
             id="path138"
             style="fill:#ffffff;fill-opacity:1;fill-rule:nonzero;stroke:none"
             d="M 0,0 H 71 V 28 H 0 Z" /><text
             id="text142"
             style="font-variant:normal;font-weight:normal;font-size:12px;font-family:Helvetica;-inkscape-font-specification:Helvetica;writing-mode:lr-tb;fill:#000000;fill-opacity:1;fill-rule:nonzero;stroke:none"
             transform="translate(0,11)"><tspan
               id="tspan140"
               y="0"
               x="0 3.9960938 10.669922 17.34375 24.017578 30.691406 36.691406 40.025391 43.359375 50.033203 52.699219 59.373047 65.373047">request block</tspan></text>
<text
             id="text146"
             style="font-variant:normal;font-weight:normal;font-size:12px;font-family:Helvetica;-inkscape-font-specification:Helvetica;writing-mode:lr-tb;fill:#000000;fill-opacity:1;fill-rule:nonzero;stroke:none"
             transform="translate(24.015625,25)"><tspan
               id="tspan144"
               y="0"
               x="0 6.6738281 13.347656 16.681641">data</tspan></text>
</g><g
           transform="scale(2.9966059)"
           id="g148"><path
             id="path150"
             style="fill:none;stroke:#000000;stroke-width:1;stroke-linecap:butt;stroke-linejoin:miter;stroke-miterlimit:10;stroke-dasharray:none;stroke-opacity:1"
             d="m 129,551 c 0,-66.66669 24.83333,-100 74.5,-100 49.66667,0 74.5,-31.84332 74.5,-95.53" /><path
             id="path152"
             style="fill:none;stroke:#000000;stroke-width:1;stroke-linecap:butt;stroke-linejoin:miter;stroke-miterlimit:10;stroke-dasharray:none;stroke-opacity:1"
             d="m 280.67001,361.23999 -2.67001,-8 -2.67001,8" /></g><g
           transform="matrix(2.9966059,0,0,2.9966059,1.4983029,1.4983029)"
           id="g154"><path
             id="path156"
             style="fill:#ffffff;fill-opacity:1;fill-rule:nonzero;stroke:none"
             d="m 1,551 h 170 v 90 H 1 Z" /><path
             id="path158"
             style="fill:none;stroke:#000000;stroke-width:1;stroke-linecap:butt;stroke-linejoin:miter;stroke-miterlimit:10;stroke-dasharray:none;stroke-opacity:1"
             d="m 1,551 h 170 v 90 H 1 Z" /></g><g
           transform="matrix(2.9966059,0,0,2.9966059,41.952484,1753.0144)"
           id="g160"><text
             id="text164"
             style="font-variant:normal;font-weight:normal;font-size:21px;font-family:Helvetica;-inkscape-font-specification:Helvetica;writing-mode:lr-tb;fill:#000000;fill-opacity:1;fill-rule:nonzero;stroke:none"
             transform="translate(0.1875,19)"><tspan
               id="tspan162"
               y="0"
               x="0 12.858398 24.537598 31.530762 36.196289 42.030762 52.530762 58.365234 70.044434 81.723633 93.402832 99.237305 110.9165 122.5957 127.26123 131.92676">Verify and build</tspan></text>
</g><g
           transform="matrix(2.9966059,0,0,2.9966059,1.4983029,1.4983029)"
           id="g166"><path
             id="path168"
             style="fill:#000000;fill-opacity:1;fill-rule:nonzero;stroke:none"
             d="m 853.5,551 c 6e-5,-5.14667 -0.026,-10.2514 -0.0783,-15.31433 l 4.99976,-0.0515 c 0.0524,5.07879 0.0785,10.20074 0.0785,15.36584 h -5 z m -0.31299,-30.34497 c -0.10443,-4.96149 -0.2348,-9.8772 -0.39111,-14.7471 l 4.99743,-0.16059 c 0.15699,4.88785 0.28785,9.82206 0.39258,14.80259 z m -0.96307,-29.76657 c -0.22498,-5.09577 -0.47949,-10.13346 -0.76349,-15.11304 l 4.99194,-0.28461 c 0.28498,4.99738 0.54053,10.05643 0.76667,15.17713 z m -1.70502,-29.90277 c -0.35199,-4.99771 -0.73559,-9.94339 -1.15088,-14.83704 l 4.98206,-0.42279 c 0.41754,4.92069 0.80304,9.89017 1.15649,14.90845 z m -2.55115,-29.95172 c -0.50048,-4.97513 -1.03515,-9.88984 -1.604,-14.74414 l 4.96606,-0.58185 c 0.5716,4.87884 1.1092,9.82065 1.6128,14.82544 z m -3.46338,-29.50208 c -0.68438,-5.06769 -1.4082,-10.06674 -2.17144,-14.99713 l 4.94116,-0.76489 c 0.76788,4.95993 1.49628,9.99087 2.18524,15.09277 z m -4.5769,-29.56744 c -0.87744,-4.99436 -1.79718,-9.91016 -2.75916,-14.74735 l 4.90394,-0.97516 c 0.96954,4.87516 1.89617,9.82758 2.77978,14.85727 z m -5.86786,-29.45468 c -1.08118,-4.82044 -2.20734,-9.55835 -3.37848,-14.21378 l 4.849,-1.21973 c 1.18134,4.69614 2.31738,9.47586 3.40827,14.33915 z m -7.30969,-28.93915 c -1.36365,-4.81848 -2.77973,-9.54337 -4.24823,-14.17462 l 4.76611,-1.5113 c 1.48438,4.68119 2.91541,9.45597 4.29315,14.32435 z m -9.01068,-28.34958 c -1.69635,-4.76853 -3.45221,-9.4259 -5.26758,-13.97214 l 4.64343,-1.85425 c 1.83911,4.60547 3.61743,9.32236 5.33496,14.15067 z m -11.0318,-27.58939 c -2.08093,-4.63936 -4.23065,-9.15176 -6.44922,-13.5372 l 4.46155,-2.25708 c 2.25403,4.45543 4.43731,9.0381 6.5498,13.74803 z m -13.42212,-26.50749 c -2.5177,-4.407 -5.11444,-8.67078 -7.79028,-12.79135 l 4.19336,-2.72315 c 2.72747,4.20009 5.37359,8.54484 7.93835,13.03425 z M 777.09955,206.2242 c -2.99841,-4.04825 -6.08508,-7.93605 -9.26001,-11.66342 l 3.8064,-3.24216 c 3.24847,3.81377 6.4057,7.7903 9.47155,11.92959 z m -19.23438,-22.5521 c -3.50012,-3.54806 -7.09607,-6.92132 -10.78778,-10.11976 l 3.27405,-3.77899 c 3.79059,3.28399 7.48169,6.74646 11.0733,10.38737 z m -22.34832,-19.33578 c -3.98658,-2.91618 -8.07453,-5.64906 -12.2638,-8.19861 l 2.59937,-4.27118 c 4.31054,2.62332 8.51605,5.43474 12.61645,8.43424 z m -25.19806,-15.32839 c -4.39984,-2.18473 -8.90229,-4.186 -13.50727,-6.00381 l 1.83594,-4.65076 c 4.73639,1.86974 9.36804,3.92848 13.89496,6.17624 z m -27.44977,-10.85235 c -4.67035,-1.4138 -9.43726,-2.65434 -14.30078,-3.72165 l 1.07177,-4.88379 c 4.9903,1.09514 9.88288,2.36844 14.67774,3.81992 z m -28.90796,-6.36484 c -4.79913,-0.69058 -9.68591,-1.22504 -14.66022,-1.60338 l 0.37915,-4.98559 c 5.08576,0.38678 10.0835,0.93344 14.99323,1.63994 z m -29.59125,-2.26645 C 623.198,129.5081 622.02136,129.5 620.84003,129.5 v -5 c 1.20422,0 2.40387,0.008 3.59887,0.0248 l -0.0691,4.99952 z" /><path
             id="path170"
             style="fill:#000000;fill-opacity:1;fill-rule:nonzero;stroke:none"
             d="m 612.59003,127 11,-5.5 -2.75,5.5 2.75,5.5 z" /><path
             id="path172"
             style="fill:none;stroke:#000000;stroke-width:1;stroke-linecap:butt;stroke-linejoin:miter;stroke-miterlimit:10;stroke-dasharray:none;stroke-opacity:1"
             d="m 612.59003,127 11,-5.5 -2.75,5.5 2.75,5.5 z" /></g><g
           transform="matrix(2.9966059,0,0,2.9966059,2424.2542,943.93085)"
           id="g174"><path
             id="path176"
             style="fill:#ffffff;fill-opacity:1;fill-rule:nonzero;stroke:none"
             d="M 0,0 H 95 V 75 H 0 Z" /><text
             id="text180"
             style="font-variant:normal;font-weight:normal;font-size:21px;font-family:Helvetica;-inkscape-font-specification:Helvetica;writing-mode:lr-tb;fill:#000000;fill-opacity:1;fill-rule:nonzero;stroke:none"
             transform="translate(0,19)"><tspan
               id="tspan178"
               y="0"
               x="0 14.006836 21 32.679199 44.358398 56.037598 66.537598 78.216797 88.716797">Broadcast</tspan></text>
<text
             id="text184"
             style="font-variant:normal;font-weight:normal;font-size:21px;font-family:Helvetica;-inkscape-font-specification:Helvetica;writing-mode:lr-tb;fill:#000000;fill-opacity:1;fill-rule:nonzero;stroke:none"
             transform="translate(18.6875,44)"><tspan
               id="tspan182"
               y="0"
               x="0 17.493164 22.158691 33.837891 45.51709">mined</tspan></text>
<text
             id="text188"
             style="font-variant:normal;font-weight:normal;font-size:21px;font-family:Helvetica;-inkscape-font-specification:Helvetica;writing-mode:lr-tb;fill:#000000;fill-opacity:1;fill-rule:nonzero;stroke:none"
             transform="translate(22.765625,69)"><tspan
               id="tspan186"
               y="0"
               x="0 11.679199 16.344727 28.023926 38.523926">block</tspan></text>
</g><g
           transform="matrix(2.9966059,0,0,2.9966059,1.4983029,1.4983029)"
           id="g190"><path
             id="path192"
             style="fill:#ffffff;fill-opacity:1;fill-rule:nonzero;stroke:none"
             d="m 781,551 h 150 v 90 H 781 Z" /><path
             id="path194"
             style="fill:none;stroke:#000000;stroke-width:1;stroke-linecap:butt;stroke-linejoin:miter;stroke-miterlimit:10;stroke-dasharray:none;stroke-opacity:1"
             d="m 781,551 h 150 v 90 H 781 Z" /></g><g
           transform="matrix(2.9966059,0,0,2.9966059,2346.3423,1714.0586)"
           id="g196"><text
             id="text200"
             style="font-variant:normal;font-weight:normal;font-size:21px;font-family:Helvetica;-inkscape-font-specification:Helvetica;writing-mode:lr-tb;fill:#000000;fill-opacity:1;fill-rule:nonzero;stroke:none"
             transform="translate(50.234375,19)"><tspan
               id="tspan198"
               y="0"
               x="0 17.493164 22.158691 33.837891">Mine</tspan></text>
<text
             id="text204"
             style="font-variant:normal;font-weight:normal;font-size:21px;font-family:Helvetica;-inkscape-font-specification:Helvetica;writing-mode:lr-tb;fill:#000000;fill-opacity:1;fill-rule:nonzero;stroke:none"
             transform="translate(15.796875,44)"><tspan
               id="tspan202"
               y="0"
               x="0 15.165527 26.844727 38.523926 44.358398 49.023926 60.703125 65.368652 77.047852 88.727051 99.227051 103.89258">Continiously</tspan></text>
</g><g
           transform="matrix(2.9966059,0,0,2.9966059,1.4983029,1.4983029)"
           id="g206"><path
             id="path208"
             style="fill:#000000;fill-opacity:1;fill-rule:nonzero;stroke:none"
             d="m 220.5,301 c -2e-5,5.35965 -0.0906,10.54929 -0.27164,15.56888 l -4.99673,-0.1803 C 215.41054,311.42929 215.5,306.29977 215.5,301 Z m -1.09474,30.22153 c -0.41757,5.37051 -0.95456,10.51678 -1.61098,15.43887 l -4.95611,-0.66095 c 0.6443,-4.83118 1.17169,-9.88635 1.58213,-15.1655 z m -4.08928,30.27881 c -1.0567,5.17459 -2.27522,10.04821 -3.65555,14.62091 l -4.78665,-1.44495 c 1.33612,-4.42618 2.51723,-9.15161 3.5433,-14.17633 z m -9.03859,29.15731 c -2.24277,4.97458 -4.75235,9.46024 -7.52873,13.45704 l -4.10645,-2.85254 c 2.60131,-3.74475 4.9603,-7.9646 7.07701,-12.65955 z m -17.84224,25.03046 c -4.02589,3.46573 -8.42534,6.22989 -13.19833,8.29245 l -1.98343,-4.58978 c 4.3061,-1.86081 8.27934,-4.35816 11.91971,-7.49198 z m -28.22296,12.31561 c -2.65315,0.33084 -5.39055,0.49625 -8.21219,0.49628 -2.49016,0 -4.90514,0.12259 -7.24495,0.3678 l -0.52112,-4.97278 c 2.51299,-0.26334 5.10167,-0.39499 7.76607,-0.39502 2.6147,-3e-5 5.14586,-0.15262 7.59344,-0.45782 z m -29.3241,4.07636 c -4.46704,1.69058 -8.57549,3.98309 -12.32535,6.87747 l -3.05511,-3.95807 c 4.14266,-3.1976 8.67957,-5.72952 13.61072,-7.59573 z m -22.25675,17.02832 c -2.73927,3.63757 -5.19985,7.76062 -7.38174,12.36911 l -4.519093,-2.13959 c 2.327316,-4.91568 4.962873,-9.32809 7.906673,-13.23727 z m -12.612122,26.04751 c -1.382133,4.5192 -2.573936,9.3657 -3.575393,14.53956 l -4.90889,-0.9502 c 1.034935,-5.34671 2.269234,-10.36392 3.702896,-15.05164 z m -5.76976,28.89902 c -0.546867,4.70938 -0.965545,9.63715 -1.256019,14.78327 l -4.99205,-0.28174 c 0.296051,-5.24481 0.723197,-10.27088 1.28144,-15.07825 z m -1.734901,29.8393 c -0.0097,1.08044 -0.01456,2.169 -0.01456,3.26574 h -5 c 0,-1.11187 0.0049,-2.21545 0.01475,-3.31067 l 4.999802,0.0449 z" /><path
             id="path210"
             style="fill:#000000;fill-opacity:1;fill-rule:nonzero;stroke:none"
             d="m 86,545.40997 -5.5,-11 5.5,2.75 5.5,-2.75 z" /><path
             id="path212"
             style="fill:none;stroke:#000000;stroke-width:1;stroke-linecap:butt;stroke-linejoin:miter;stroke-miterlimit:10;stroke-dasharray:none;stroke-opacity:1"
             d="m 86,545.40997 -5.5,-11 5.5,2.75 5.5,-2.75 z" /></g><g
           transform="matrix(2.9966059,0,0,2.9966059,413.53162,1132.717)"
           id="g214"><path
             id="path216"
             style="fill:#ffffff;fill-opacity:1;fill-rule:nonzero;stroke:none"
             d="M 0,0 H 78 V 50 H 0 Z" /><text
             id="text220"
             style="font-variant:normal;font-weight:normal;font-size:21px;font-family:Helvetica;-inkscape-font-specification:Helvetica;writing-mode:lr-tb;fill:#000000;fill-opacity:1;fill-rule:nonzero;stroke:none"
             transform="translate(18.6875,19)"><tspan
               id="tspan218"
               y="0"
               x="0 10.5 16.334473 28.013672 35.006836">start</tspan></text>
<text
             id="text224"
             style="font-variant:normal;font-weight:normal;font-size:21px;font-family:Helvetica;-inkscape-font-specification:Helvetica;writing-mode:lr-tb;fill:#000000;fill-opacity:1;fill-rule:nonzero;stroke:none"
             transform="translate(0,44)"><tspan
               id="tspan222"
               y="0"
               x="0 10.5 22.179199 29.172363 33.837891 39.672363 50.172363 54.837891 66.51709">verifying</tspan></text>
</g><g
           transform="scale(2.9966059)"
           id="g226"><path
             id="path228"
             style="fill:#000000;fill-opacity:1;fill-rule:nonzero;stroke:none"
             d="m 293,270 c 2.05728,0 4.09216,-0.0192 6.10461,-0.0576 l 0.0382,1.99964 C 297.11752,271.98068 295.06995,272 293,272 Z m 12.07346,-0.23026 c 1.98565,-0.0775 3.94665,-0.1744 5.88296,-0.29074 l 0.11993,1.9964 c -1.95019,0.11716 -3.92517,0.21476 -5.92489,0.29282 z m 11.94558,-0.72485 c 1.99622,-0.16653 3.9657,-0.35467 5.90842,-0.56445 l 0.21472,1.98846 c -1.95889,0.21152 -3.94452,0.40122 -5.95688,0.56909 z m 11.82538,-1.28113 c 2.01462,-0.27121 3.99921,-0.56692 5.95377,-0.88708 l 0.3233,1.97369 c -1.97333,0.32321 -3.97675,0.62174 -6.01022,0.89551 z m 11.73251,-1.92181 c 2.00681,-0.39081 3.98118,-0.8092 5.9231,-1.25516 l 0.44763,1.94928 c -1.96365,0.45093 -3.95978,0.87393 -5.9884,1.26901 z m 11.67933,-2.68286 c 1.94607,-0.51972 3.85742,-1.06909 5.73404,-1.64816 l 0.58966,1.91107 c -1.9011,0.58658 -3.83698,1.14303 -5.80765,1.66934 z m 11.40265,-3.52475 c 1.88229,-0.66721 3.72616,-1.36633 5.53161,-2.09741 l 0.75067,1.85376 c -1.83261,0.74209 -3.70401,1.45169 -5.61413,2.12872 z m 11.02838,-4.47647 c 1.80447,-0.83357 3.56765,-1.70229 5.28958,-2.60611 l 0.9295,1.77087 c -1.75171,0.91948 -3.54516,1.8031 -5.38034,2.65085 z m 10.51315,-5.53104 c 1.70422,-1.0172 3.36325,-2.07213 4.97705,-3.16482 l 1.12134,1.65609 c -1.64527,1.11403 -3.3364,2.18941 -5.07337,3.22611 z m 9.8168,-6.6588 c 1.57004,-1.20811 3.09296,-2.45712 4.56873,-3.74702 l 1.31622,1.50586 c -1.50699,1.31715 -3.06207,2.59256 -4.66528,3.82622 z m 8.9184,-7.80328 c 1.4017,-1.39487 2.75448,-2.83188 4.05832,-4.31102 l 1.50036,1.32248 c -1.33285,1.51202 -2.71548,2.98077 -4.14791,4.40623 z m 7.83246,-8.88751 c 1.20456,-1.56243 2.35992,-3.16652 3.46606,-4.81229 l 1.65991,1.11566 c -1.1304,1.68184 -2.31106,3.32109 -3.54205,4.91779 z m 6.61352,-9.83411 c 0.99179,-1.69954 1.93628,-3.43957 2.83347,-5.22011 l 1.78607,0.89997 c -0.91562,1.81703 -1.87967,3.5931 -2.89218,5.3282 z m 5.3429,-10.58992 c 0.7803,-1.80498 1.51605,-3.64786 2.20727,-5.52867 l 1.87726,0.68991 c -0.70404,1.91579 -1.45361,3.79324 -2.24872,5.6324 z m 4.10318,-11.14148 c 0.58191,-1.88202 1.12286,-3.80034 1.62283,-5.75497 l 1.93762,0.49563 c -0.50811,1.98644 -1.05801,3.93645 -1.64969,5.85007 z m 2.95505,-11.51199 c 0.40371,-1.94239 0.76953,-3.91829 1.09747,-5.92772 l 1.97388,0.32214 c -0.33255,2.03763 -0.70362,4.04181 -1.11322,6.01256 z m 1.92932,-11.7453 c 0.24301,-1.96923 0.45163,-3.96822 0.62585,-5.99701 l 1.99268,0.17114 c -0.1763,2.05286 -0.38748,4.07646 -0.63361,6.0708 z m 1.03085,-11.88874 c 0.10226,-1.96406 0.17401,-3.95485 0.2153,-5.97233 l 1.99957,0.0409 c -0.0417,2.0392 -0.11419,4.05103 -0.21756,6.03548 l -1.99731,-0.10401 z" /><path
             id="path230"
             style="fill:none;stroke:#000000;stroke-width:1;stroke-linecap:butt;stroke-linejoin:miter;stroke-miterlimit:10;stroke-dasharray:none;stroke-opacity:1"
             d="m 437.67001,155.24 -2.67001,-8 -2.67001,8" /></g><g
           transform="matrix(2.9966059,0,0,2.9966059,1156.6898,644.27026)"
           id="g232"><path
             id="path234"
             style="fill:#ffffff;fill-opacity:1;fill-rule:nonzero;stroke:none"
             d="M 0,0 H 71 V 14 H 0 Z" /><text
             id="text238"
             style="font-variant:normal;font-weight:normal;font-size:12px;font-family:Helvetica;-inkscape-font-specification:Helvetica;writing-mode:lr-tb;fill:#000000;fill-opacity:1;fill-rule:nonzero;stroke:none"
             transform="translate(0,11)"><tspan
               id="tspan236"
               y="0"
               x="0 3.9960938 10.669922 17.34375 24.017578 30.691406 36.691406 40.025391 43.359375 50.033203 52.699219 59.373047 65.373047">request block</tspan></text>
</g><g
           transform="matrix(2.9966059,0,0,2.9966059,1.4983029,1.4983029)"
           id="g240"><path
             id="path242"
             style="fill:#ffffff;fill-opacity:1;fill-rule:nonzero;stroke:none"
             d="m 193,261 h 100 v 40 H 193 Z" /><path
             id="path244"
             style="fill:none;stroke:#ff0000;stroke-width:1;stroke-linecap:butt;stroke-linejoin:miter;stroke-miterlimit:10;stroke-dasharray:none;stroke-opacity:1"
             d="m 193,261 h 100 v 40 H 193 Z" /></g><g
           transform="matrix(2.9966059,0,0,2.9966059,590.33136,812.0802)"
           id="g246"><text
             id="text250"
             style="font-variant:normal;font-weight:normal;font-size:19px;font-family:Helvetica;-inkscape-font-specification:Helvetica;writing-mode:lr-tb;fill:#000000;fill-opacity:1;fill-rule:nonzero;stroke:none"
             transform="translate(0.046875,18)"><tspan
               id="tspan248"
               y="0"
               x="0 12.672852 16.894043 27.460938 36.960938 46.460938 55.960938 66.527832 77.094727 81.315918">Blockchain</tspan></text>
</g><g
           transform="scale(2.9966059)"
           id="g252"><path
             id="path254"
             style="fill:none;stroke:#000000;stroke-width:1;stroke-linecap:butt;stroke-linejoin:miter;stroke-miterlimit:10;stroke-dasharray:none;stroke-opacity:1"
             d="m 301.76001,323.17001 -35,-20 m 2.47998,-4.34002 35,20" /></g><g
           transform="matrix(2.9966059,0,0,2.9966059,1.4983029,1.4983029)"
           id="g256"><path
             id="path258"
             style="fill:#ffffff;fill-opacity:1;fill-rule:nonzero;stroke:none"
             d="m 253,321 h 100 v 30 H 253 Z" /><path
             id="path260"
             style="fill:none;stroke:#ff0000;stroke-width:1;stroke-linecap:butt;stroke-linejoin:miter;stroke-miterlimit:10;stroke-dasharray:none;stroke-opacity:1"
             d="m 253,321 h 100 v 30 H 253 Z" /></g><g
           transform="matrix(2.9966059,0,0,2.9966059,830.05981,976.89349)"
           id="g262"><text
             id="text266"
             style="font-variant:normal;font-weight:normal;font-size:19px;font-family:Helvetica;-inkscape-font-specification:Helvetica;writing-mode:lr-tb;fill:#000000;fill-opacity:1;fill-rule:nonzero;stroke:none"
             transform="translate(0.609375,18)"><tspan
               id="tspan264"
               y="0"
               x="0 13.721191 25.327148 38">UTXO</tspan></text>
</g><g
           transform="scale(2.9966059)"
           id="g268"><path
             id="path270"
             style="fill:#000000;fill-opacity:1;fill-rule:nonzero;stroke:none"
             d="m 619.65027,447.93781 4.75317,3.66162 -1.22058,1.58441 -4.75317,-3.66162 m 10.72687,5.73883 4.75317,3.66165 -1.22058,1.58441 -4.75318,-3.66165 m 10.72693,5.73886 4.75318,3.66162 -1.22058,1.58441 -4.75318,-3.66162 m 10.72687,5.73883 4.75317,3.66162 -1.22058,1.58441 -4.75317,-3.66162 m 10.72693,5.73883 4.75311,3.66166 -1.22058,1.58441 -4.75311,-3.66165 m 10.72686,5.73886 4.75318,3.66162 -1.22058,1.58441 -4.75318,-3.66162 m 10.72687,5.73883 4.75317,3.66165 -1.22058,1.58441 -4.75317,-3.66165 m 10.72693,5.73886 4.75311,3.66162 -1.22058,1.58441 -4.75311,-3.66162 m 10.72686,5.73883 4.75318,3.66163 -1.22058,1.58441 -4.75318,-3.66162 m 10.72693,5.73886 4.75312,3.66162 -1.22059,1.58435 -4.75311,-3.66162 m 10.72687,5.73889 4.75317,3.66162 -1.22058,1.58435 -4.75317,-3.66162 m 10.72687,5.73895 4.75317,3.66162 -1.22058,1.58435 -4.75318,-3.66162 m 10.72693,5.73889 4.75318,3.66163 -1.22058,1.58435 -4.75318,-3.66162 m 10.72687,5.73889 4.75317,3.66162 -1.22058,1.58435 -4.75317,-3.66162 m 10.72687,5.73889 4.75317,3.66162 -1.22058,1.58435 -4.75317,-3.66162 m 10.72692,5.73889 4.75318,3.66168 -1.22058,1.58435 -4.75318,-3.66168 m 10.72693,5.73895 4.75311,3.66163 -1.22058,1.58435 -4.75311,-3.66163" /><path
             id="path272"
             style="fill:none;stroke:#000000;stroke-width:1;stroke-linecap:butt;stroke-linejoin:miter;stroke-miterlimit:10;stroke-dasharray:none;stroke-opacity:1"
             d="m 625.23999,450.13 -7.96997,-2.77001 4.70996,7" /><path
             id="path274"
             style="fill:none;stroke:#000000;stroke-width:1;stroke-linecap:butt;stroke-linejoin:miter;stroke-miterlimit:10;stroke-dasharray:none;stroke-opacity:1"
             d="m 771.26001,569.37 7.96997,2.77001 -4.70996,-7" /></g><g
           transform="matrix(2.9966059,0,0,2.9966059,1977.7599,1486.3165)"
           id="g276"><path
             id="path278"
             style="fill:#ffffff;fill-opacity:1;fill-rule:nonzero;stroke:none"
             d="M 0,0 H 76 V 28 H 0 Z" /><text
             id="text282"
             style="font-variant:normal;font-weight:normal;font-size:12px;font-family:Helvetica;-inkscape-font-specification:Helvetica;writing-mode:lr-tb;fill:#000000;fill-opacity:1;fill-rule:nonzero;stroke:none"
             transform="translate(0,11)"><tspan
               id="tspan280"
               y="0"
               x="0 6.6738281 13.347656 20.021484 26.695312 30.691406 37.365234 40.699219 47.373047 50.707031 57.380859 64.054688 72.720703">generate new </tspan></text>
<text
             id="text286"
             style="font-variant:normal;font-weight:normal;font-size:12px;font-family:Helvetica;-inkscape-font-specification:Helvetica;writing-mode:lr-tb;fill:#000000;fill-opacity:1;fill-rule:nonzero;stroke:none"
             transform="translate(2.6875,25)"><tspan
               id="tspan284"
               y="0"
               x="0 6.6738281 9.3398438 16.013672 22.013672 28.013672 31.347656 34.681641 41.355469 44.689453 54.685547 57.351562 64.025391">block to mine</tspan></text>
</g><g
           transform="scale(2.9966059)"
           id="g288"><path
             id="path290"
             style="fill:#000000;fill-opacity:1;fill-rule:nonzero;stroke:none"
             d="m 498.53,432 c -2.1423,0 -4.23633,-0.0351 -6.28204,-0.10532 l 0.0686,-1.99884 c 2.02316,0.0695 4.09433,0.10419 6.21344,0.10416 z m -12.27765,-0.42157 c -2.01785,-0.14548 -3.98349,-0.32846 -5.89694,-0.54901 l 0.229,-1.98682 c 1.8848,0.21729 3.82205,0.39762 5.81174,0.54102 z m -12.04318,-1.41641 c -1.98703,-0.33512 -3.9122,-0.71625 -5.77552,-1.14347 l 0.44697,-1.9494 c 1.82507,0.41846 3.71212,0.79203 5.66113,1.1207 z m -11.77057,-2.74286 c -1.96622,-0.60428 -3.85068,-1.26831 -5.65332,-1.99216 l 0.74524,-1.85596 c 1.75088,0.7031 3.58276,1.34855 5.4956,1.93638 z m -11.23926,-4.56275 c -1.82962,-0.96102 -3.55609,-1.99792 -5.17935,-3.11068 l 1.13086,-1.6496 c 1.55865,1.06851 3.21814,2.06506 4.97848,2.98965 z m -10.01782,-6.92758 c -1.52146,-1.3822 -2.92075,-2.85302 -4.19791,-4.41244 l 1.5473,-1.26721 c 1.21488,1.48333 2.5467,2.88311 3.99546,4.19931 z m -7.71552,-9.44522 c -1.02942,-1.74093 -1.93606,-3.5701 -2.71991,-5.48746 l 1.85126,-0.75683 c 0.74698,1.82715 1.61038,3.56927 2.59021,5.22635 z m -4.64596,-11.28506 c -0.50144,-1.91513 -0.89926,-3.90399 -1.19348,-5.96665 l 1.97998,-0.28241 c 0.28347,1.98725 0.66623,3.9014 1.14825,5.74247 z m -1.75122,-12.03983 C 427.02295,382.12225 427,381.06934 427,380 c 0,-1.05508 -0.0229,-2.09311 -0.0688,-3.11404 l 1.99799,-0.0898 c 0.0472,1.05085 0.0709,2.11878 0.0708,3.20383 0,1.03979 0.0223,2.06323 0.0669,3.07028 l -1.99804,0.0884 z m -0.68116,-12.14908 c -0.285,-1.98745 -0.66946,-3.90188 -1.15338,-5.74328 l 1.93433,-0.50836 c 0.50333,1.91519 0.90292,3.90445 1.19879,5.96777 z m -3.00064,-11.28714 c -0.74881,-1.8266 -1.61416,-3.56808 -2.59607,-5.22445 l 1.72046,-1.01984 c 1.03159,1.74023 1.94028,3.56879 2.72614,5.48563 z m -5.94458,-10.00421 c -1.2167,-1.48233 -2.55008,-2.8807 -4.00006,-4.19516 l 1.34326,-1.48175 c 1.5228,1.38046 2.92368,2.84979 4.2027,4.40799 z m -8.62692,-7.83746 c -1.55997,-1.06741 -3.22092,-2.06293 -4.98291,-2.9866 l 0.92859,-1.77137 c 1.83115,0.95993 3.55905,1.99573 5.18372,3.1074 z m -10.38379,-5.46704 c -1.7525,-0.70233 -3.58557,-1.34696 -5.49917,-1.93387 l 0.58642,-1.91211 c 1.96677,0.60318 3.85236,1.26636 5.65677,1.98953 z m -11.35171,-3.49198 c -1.82602,-0.41781 -3.71396,-0.79074 -5.66388,-1.11877 l 0.33178,-1.97229 c 1.98792,0.33444 3.91398,0.71493 5.7782,1.14148 z m -11.70932,-1.96957 c -1.88443,-0.21658 -3.82056,-0.39618 -5.80838,-0.53885 l 0.14319,-1.99487 c 2.01647,0.14474 3.98098,0.32699 5.89352,0.54678 z m -11.73096,-0.84958 C 361.63138,330.03421 359.5748,330 357.47,330 v -2 c 2.12747,0 4.20676,0.0346 6.23786,0.10382 l -0.0681,1.99884 z" /><path
             id="path292"
             style="fill:none;stroke:#000000;stroke-width:1;stroke-linecap:butt;stroke-linejoin:miter;stroke-miterlimit:10;stroke-dasharray:none;stroke-opacity:1"
             d="m 492.76001,433.67001 8,-2.67001 -8,-2.67001" /><path
             id="path294"
             style="fill:none;stroke:#000000;stroke-width:1;stroke-linecap:butt;stroke-linejoin:miter;stroke-miterlimit:10;stroke-dasharray:none;stroke-opacity:1"
             d="m 363.23999,326.32999 -8,2.67001 8,2.67001" /></g><g
           transform="matrix(2.9966059,0,0,2.9966059,1129.7205,988.87994)"
           id="g296"><path
             id="path298"
             style="fill:#ffffff;fill-opacity:1;fill-rule:nonzero;stroke:none"
             d="M 0,0 H 69 V 14 H 0 Z" /><text
             id="text302"
             style="font-variant:normal;font-weight:normal;font-size:12px;font-family:Helvetica;-inkscape-font-specification:Helvetica;writing-mode:lr-tb;fill:#000000;fill-opacity:1;fill-rule:nonzero;stroke:none"
             transform="translate(0,11)"><tspan
               id="tspan300"
               y="0"
               x="0 6 12.673828 16.669922 19.335938 22.669922 28.669922 32.003906 38.003906 44.677734 47.34375 50.009766 56.683594 59.349609 62.683594">verify validity</tspan></text>
</g><g
           transform="matrix(2.9966059,0,0,2.9966059,1.4983029,1.4983029)"
           id="g304"><path
             id="path306"
             style="fill:#ffffff;fill-opacity:1;fill-rule:nonzero;stroke:none"
             d="m 503,416 h 150 v 30 H 503 Z" /><path
             id="path308"
             style="fill:none;stroke:#ff0000;stroke-width:1;stroke-linecap:butt;stroke-linejoin:miter;stroke-miterlimit:10;stroke-dasharray:none;stroke-opacity:1"
             d="m 503,416 h 150 v 30 H 503 Z" /></g><g
           transform="matrix(2.9966059,0,0,2.9966059,1531.2656,1261.571)"
           id="g310"><text
             id="text314"
             style="font-variant:normal;font-weight:normal;font-size:19px;font-family:Helvetica;-inkscape-font-specification:Helvetica;writing-mode:lr-tb;fill:#000000;fill-opacity:1;fill-rule:nonzero;stroke:none"
             transform="translate(0.75,18)"><tspan
               id="tspan312"
               y="0"
               x="0 10.910156 17.237305 27.804199 38.371094 47.871094 58.437988 67.937988 73.216797 77.437988 88.004883 98.571777 109.13867 119.70557 130.27246">Transactionpool</tspan></text>
</g><g
           transform="scale(2.9966059)"
           id="g316"><path
             id="path318"
             style="fill:#000000;fill-opacity:1;fill-rule:nonzero;stroke:none"
             d="m 304.86047,441.56158 -0.18954,-5.997 1.99902,-0.0632 0.18955,5.99701 m -2.37812,-11.93084 -0.18951,-5.99701 1.99902,-0.0632 0.18952,5.997 m -2.37808,-11.93081 -0.18955,-5.99701 1.99902,-0.0632 0.18955,5.99701 m -2.37811,-11.93085 -0.18955,-5.99701 1.99902,-0.0632 0.18955,5.99701 m -2.37808,-11.93085 -0.18955,-5.99701 1.99903,-0.0632 0.18954,5.99701 m -2.37811,-11.93085 -0.18955,-5.99701 1.99903,-0.0632 0.18954,5.99701 m -2.37811,-11.93085 -0.18952,-5.99698 1.99903,-0.0632 0.18951,5.99698 m -2.37808,-11.93081 -0.0664,-2.10193 1.99903,-0.0632 0.0664,2.10192" /><path
             id="path320"
             style="fill:none;stroke:#000000;stroke-width:1;stroke-linecap:butt;stroke-linejoin:miter;stroke-miterlimit:10;stroke-dasharray:none;stroke-opacity:1"
             d="m 303.01001,435.85001 2.91998,7.91998 2.41001,-8.09" /><path
             id="path322"
             style="fill:none;stroke:#000000;stroke-width:1;stroke-linecap:butt;stroke-linejoin:miter;stroke-miterlimit:10;stroke-dasharray:none;stroke-opacity:1"
             d="m 305.98999,361.14999 -2.91998,-7.91998 -2.41001,8.09" /></g><g
           transform="matrix(2.9966059,0,0,2.9966059,809.08356,1174.6696)"
           id="g324"><path
             id="path326"
             style="fill:#ffffff;fill-opacity:1;fill-rule:nonzero;stroke:none"
             d="M 0,0 H 69 V 14 H 0 Z" /><text
             id="text330"
             style="font-variant:normal;font-weight:normal;font-size:12px;font-family:Helvetica;-inkscape-font-specification:Helvetica;writing-mode:lr-tb;fill:#000000;fill-opacity:1;fill-rule:nonzero;stroke:none"
             transform="translate(0,11)"><tspan
               id="tspan328"
               y="0"
               x="0 6 12.673828 16.669922 19.335938 22.669922 28.669922 32.003906 38.003906 44.677734 47.34375 50.009766 56.683594 59.349609 62.683594">verify validity</tspan></text>
</g><g
           transform="scale(2.9966059)"
           id="g332"><path
             id="path334"
             style="fill:#000000;fill-opacity:1;fill-rule:nonzero;stroke:none"
             d="m 381,453 c 2.12305,0 4.20059,-0.0265 6.23264,-0.0797 l 0.0522,1.99933 C 385.23575,454.97324 383.14078,455 381,455 Z m 12.19034,-0.31842 c 1.95755,-0.10706 3.86981,-0.24118 5.73681,-0.40237 l 0.17206,1.99255 c -1.88839,0.16312 -3.82162,0.29871 -5.79968,0.40683 z m 11.89789,-1.05383 c 1.99234,-0.25156 3.92559,-0.53775 5.7998,-0.85862 l 0.33746,1.97132 c -1.90338,0.32583 -3.86563,0.61633 -5.88671,0.87155 z m 11.64203,-2.01426 c 2.00762,-0.45449 3.93609,-0.95458 5.7854,-1.5003 l 0.56604,1.91821 c -1.89045,0.55783 -3.86039,1.06876 -5.90986,1.53272 z m 11.30477,-3.35311 c 1.93265,-0.73499 3.76111,-1.52976 5.48533,-2.38434 l 0.88818,1.79193 c -1.78217,0.88333 -3.66971,1.70395 -5.66263,2.46179 z m 10.53803,-5.25226 c 1.69168,-1.0994 3.2522,-2.27423 4.68152,-3.52448 l 1.31677,1.50537 c -1.50095,1.31299 -3.13708,2.54502 -4.90845,3.69611 z m 8.73163,-7.68949 c 1.23599,-1.50592 2.32275,-3.09893 3.26022,-4.77905 l 1.74652,0.97455 c -0.99551,1.78412 -2.14911,3.47525 -3.46078,5.07336 z m 5.61984,-10.06393 c 0.61893,-1.79126 1.0994,-3.66516 1.44144,-5.62167 l 1.97009,0.34442 c -0.36038,2.06158 -0.86746,4.03839 -1.52121,5.93039 z m 2.04379,-11.48285 C 454.98944,411.18729 455,410.59665 455,410 c 3e-5,-1.54053 0.0638,-3.04233 0.19113,-4.5054 l 1.99243,0.17352 C 457.06119,407.07327 457,408.51724 457,410 c 0,0.62112 -0.011,1.23581 -0.033,1.84406 l -1.99872,-0.0722 z m 1.13834,-12.21716 c 0.46982,-2.07334 1.0892,-4.05478 1.85809,-5.9444 l 1.85248,0.75378 c -0.72763,1.78818 -1.3143,3.66572 -1.76001,5.63263 z m 4.64514,-11.38727 c 1.0932,-1.73868 2.34161,-3.38004 3.74521,-4.92401 l 1.47992,1.34534 c -1.32425,1.45678 -2.50159,3.00454 -3.53201,4.64324 z m 8.18173,-9.07309 c 1.56946,-1.25412 3.27082,-2.42444 5.10404,-3.51089 l 1.01971,1.72052 c -1.75339,1.03918 -3.37848,2.15679 -4.87527,3.35281 z m 10.45102,-6.2756 c 1.80466,-0.81247 3.7096,-1.56162 5.71475,-2.24747 l 0.64728,1.89239 c -1.94626,0.66571 -3.79324,1.39197 -5.54098,2.17881 z m 11.45917,-3.9679 c 1.93118,-0.50314 3.93991,-0.95685 6.02621,-1.36111 l 0.3805,1.9635 c -2.04541,0.39639 -4.01291,0.84069 -5.9025,1.33297 z m 11.84241,-2.33203 c 1.99936,-0.28345 4.06265,-0.52731 6.18985,-0.7316 l 0.19116,1.99085 c -2.0968,0.20135 -4.13022,0.44168 -6.10025,0.72097 z m 12.04751,-1.18408 c 1.95783,-0.11634 3.96295,-0.20233 6.01538,-0.258 l 0.0542,1.99927 c -2.03131,0.055 -4.01495,0.1401 -5.95093,0.25519 z" /><path
             id="path336"
             style="fill:none;stroke:#000000;stroke-width:1;stroke-linecap:butt;stroke-linejoin:miter;stroke-miterlimit:10;stroke-dasharray:none;stroke-opacity:1"
             d="m 520.76001,368.67001 8,-2.67001 -8,-2.67001" /></g><g
           transform="matrix(2.9966059,0,0,2.9966059,1141.7068,1342.4795)"
           id="g338"><path
             id="path340"
             style="fill:#ffffff;fill-opacity:1;fill-rule:nonzero;stroke:none"
             d="M 0,0 H 91 V 28 H 0 Z" /><text
             id="text344"
             style="font-variant:normal;font-weight:normal;font-size:12px;font-family:Helvetica;-inkscape-font-specification:Helvetica;writing-mode:lr-tb;fill:#000000;fill-opacity:1;fill-rule:nonzero;stroke:none"
             transform="translate(0,11)"><tspan
               id="tspan342"
               y="0"
               x="0 9.9960938 16.669922 22.669922 29.34375 32.677734 36.011719 40.007812 46.681641 53.355469 59.355469 66.029297 72.029297 75.363281 78.029297 84.703125">make transaction</tspan></text>
<text
             id="text348"
             style="font-variant:normal;font-weight:normal;font-size:12px;font-family:Helvetica;-inkscape-font-specification:Helvetica;writing-mode:lr-tb;fill:#000000;fill-opacity:1;fill-rule:nonzero;stroke:none"
             transform="translate(25.6875,25)"><tspan
               id="tspan346"
               y="0"
               x="0 3.9960938 10.669922 17.34375 24.017578 30.691406 36.691406">request</tspan></text>
</g><g
           transform="matrix(2.9966059,0,0,2.9966059,1.4983029,1.4983029)"
           id="g350"><path
             id="path352"
             style="fill:#ffffff;fill-opacity:1;fill-rule:nonzero;stroke:none"
             d="m 281,446 h 100 v 30 H 281 Z" /><path
             id="path354"
             style="fill:none;stroke:#ff0000;stroke-width:1;stroke-linecap:butt;stroke-linejoin:miter;stroke-miterlimit:10;stroke-dasharray:none;stroke-opacity:1"
             d="m 281,446 h 100 v 30 H 281 Z" /></g><g
           transform="matrix(2.9966059,0,0,2.9966059,913.96478,1351.4692)"
           id="g356"><text
             id="text360"
             style="font-variant:normal;font-weight:normal;font-size:19px;font-family:Helvetica;-inkscape-font-specification:Helvetica;writing-mode:lr-tb;fill:#000000;fill-opacity:1;fill-rule:nonzero;stroke:none"
             transform="translate(0.953125,18)"><tspan
               id="tspan358"
               y="0"
               x="0 17.237305 27.804199 32.025391 36.246582 46.813477">Wallet</tspan></text>
</g><g
           transform="matrix(2.9966059,0,0,2.9966059,1.4983029,1.4983029)"
           id="g362"><path
             id="path364"
             style="fill:none;stroke:#000000;stroke-width:1;stroke-linecap:butt;stroke-linejoin:miter;stroke-miterlimit:10;stroke-dasharray:none;stroke-opacity:1"
             d="m 243,231 c 0,0 0,5.38667 0,16.16" /><path
             id="path366"
             style="fill:#000000;fill-opacity:1;fill-rule:nonzero;stroke:none"
             d="m 243,255.41 -5.5,-11 5.5,2.75 5.5,-2.75 z" /><path
             id="path368"
             style="fill:none;stroke:#000000;stroke-width:1;stroke-linecap:butt;stroke-linejoin:miter;stroke-miterlimit:10;stroke-dasharray:none;stroke-opacity:1"
             d="m 243,255.41 -5.5,-11 5.5,2.75 5.5,-2.75 z" /><path
             id="path370"
             style="fill:#ffffff;fill-opacity:1;fill-rule:nonzero;stroke:none"
             d="m 183,201 h 120 v 30 H 183 Z" /><path
             id="path372"
             style="fill:none;stroke:#b3b3b3;stroke-width:1;stroke-linecap:butt;stroke-linejoin:miter;stroke-miterlimit:10;stroke-dasharray:none;stroke-opacity:1"
             d="m 183,201 h 120 v 30 H 183 Z" /></g><g
           transform="matrix(2.9966059,0,0,2.9966059,566.35852,629.28723)"
           id="g374"><text
             id="text378"
             style="font-variant:normal;font-weight:normal;font-size:12px;font-family:Helvetica;-inkscape-font-specification:Helvetica;writing-mode:lr-tb;fill:#000000;fill-opacity:1;fill-rule:nonzero;stroke:none"
             transform="translate(0.953125,11)"><tspan
               id="tspan376"
               y="0"
               x="0 8.0039062 14.677734 21.351562 24.685547 31.359375 34.025391 40.699219 46.699219 52.699219 58.699219 65.373047 72.046875 74.712891 81.386719 88.060547 94.734375 101.4082">Add blockchainnode</tspan></text>
</g><g
           transform="scale(2.9966059)"
           id="g380"><path
             id="path382"
             style="fill:none;stroke:#000000;stroke-width:1;stroke-linecap:butt;stroke-linejoin:miter;stroke-miterlimit:10;stroke-dasharray:none;stroke-opacity:1"
             d="m 154,266 c 0,16.66666 10.25333,25 30.75999,25" /><path
             id="path384"
             style="fill:#000000;fill-opacity:1;fill-rule:nonzero;stroke:none"
             d="m 190.75999,291 -8,4 2,-4 -2,-4 z" /><path
             id="path386"
             style="fill:none;stroke:#000000;stroke-width:1;stroke-linecap:butt;stroke-linejoin:miter;stroke-miterlimit:10;stroke-dasharray:none;stroke-opacity:1"
             d="m 190.75999,291 -8,4 2,-4 -2,-4 z" /><path
             id="path388"
             style="fill:#000000;fill-opacity:1;fill-rule:nonzero;stroke:none"
             d="m 120,266.00192 -0.0117,6.12638 -2,-0.004 0.0117,-6.12637 2,0.004 z m -0.0469,12.12674 -0.0592,5.90351 -1.99989,-0.02 0.0592,-5.90351 z m -0.14808,12.02472 -0.11556,5.95862 -1.99962,-0.0388 0.11556,-5.95862 z m -0.26293,11.94943 -0.18354,6.05762 -1.99908,-0.0606 0.18353,-6.05761 1.99909,0.0605 z m -0.39841,11.95151 -0.26393,6.10397 -1.99814,-0.0864 0.26393,-6.10397 z m -0.5665,12.06448 -0.35509,6.01343 -1.99652,-0.11792 0.35509,-6.01342 z m -0.76533,12.01481 c -0.14948,2.03677 -0.30654,4.02902 -0.47121,5.97674 l -1.99289,-0.16846 c 0.16407,-1.9407 0.32055,-3.92559 0.46947,-5.95465 z m -1.0165,11.98172 c -0.19924,2.04562 -0.40771,4.03793 -0.62543,5.97692 l -1.98751,-0.22314 c 0.21658,-1.92877 0.42403,-3.91132 0.62235,-5.94763 z m -1.34433,11.92767 c -0.26908,2.07242 -0.55011,4.07678 -0.84308,6.01312 l -1.9775,-0.29919 c 0.29086,-1.92246 0.56994,-3.91294 0.83723,-5.97144 z m -1.79988,11.85629 c -0.3702,2.08951 -0.75663,4.08713 -1.15931,5.9928 l -1.95679,-0.41345 c 0.39812,-1.88413 0.78038,-3.8602 1.14677,-5.92822 z m -2.5372,11.90964 c -0.53271,2.07291 -1.08956,4.01065 -1.67058,5.81329 l -1.90356,-0.61352 c 0.56866,-1.76438 1.11436,-3.66358 1.63708,-5.69757 z m -3.78004,11.51846 c -0.8898,2.08362 -1.82835,3.90793 -2.81563,5.47293 l -1.69153,-1.06707 c 0.93049,-1.47495 1.81977,-3.20539 2.66785,-5.19132 z m -6.8293,10.20246 c -1.883403,1.54275 -3.906711,2.36288 -6.069911,2.46038 l -0.09009,-1.99798 c 1.720871,-0.0776 3.351761,-0.74744 4.892662,-2.00965 l 1.267339,1.54725 z m -11.189258,3.99508 c -1.34214,0.92392 -2.62091,2.26734 -3.836296,4.03025 l -1.646606,-1.1352 c 1.354805,-1.96518 2.80442,-3.47931 4.348854,-4.54245 z m -6.644691,9.1045 c -0.747322,1.64321 -1.462143,3.4732 -2.144478,5.49002 l -1.894501,-0.641 c 0.70382,-2.08023 1.443283,-3.97256 2.218407,-5.67697 z m -3.848457,11.16683 c -0.487603,1.82444 -0.955079,3.76136 -1.402443,5.81077 l -1.953995,-0.42652 c 0.453964,-2.07974 0.928711,-4.04663 1.424248,-5.90066 z m -2.587059,11.75849 c -0.336388,1.85025 -0.659157,3.77557 -0.968293,5.77591 l -1.976532,-0.30542 c 0.311898,-2.01828 0.637589,-3.96106 0.977082,-5.82828 z m -1.816323,11.7095 c -0.254883,1.92984 -0.498764,3.92069 -0.731651,5.97257 l -1.987244,-0.22553 c 0.234238,-2.06384 0.479615,-4.06683 0.736122,-6.00894 z m -1.35379,11.86582 c -0.192726,1.96533 -0.37645,3.98184 -0.551155,6.0495 l -1.992905,-0.1684 c 0.175423,-2.07605 0.359955,-4.10147 0.553612,-6.07629 z m -1.01355,11.92926 c -0.144356,1.97631 -0.281113,3.9949 -0.410271,6.05575 l -1.996078,-0.12506 c 0.129631,-2.06851 0.266853,-4.09396 0.411659,-6.07638 z m -0.753265,11.9599 -0.298424,6.02838 -1.997559,-0.0989 0.298424,-6.02838 z m -0.547653,12.00058 -0.207245,5.96701 -1.998795,-0.0694 0.207245,-5.96701 z m -0.379357,12.04995 -0.132187,5.89234 -1.999496,-0.0448 0.132187,-5.89234 z m -0.235237,11.9336 -0.07219,5.99554 -1.999863,-0.0241 0.0722,-5.99554 1.999847,0.024 z m -0.116325,11.93695 -0.01885,6.08978 -1.999985,-0.006 0.01884,-6.08978 1.999985,0.006 z" /><path
             id="path390"
             style="fill:none;stroke:#000000;stroke-width:1;stroke-linecap:butt;stroke-linejoin:miter;stroke-miterlimit:10;stroke-dasharray:none;stroke-opacity:1"
             d="m 66.330002,540.76001 2.669998,8 2.669998,-8" /></g><g
           transform="matrix(2.9966059,0,0,2.9966059,239.72847,1207.6322)"
           id="g392"><path
             id="path394"
             style="fill:#ffffff;fill-opacity:1;fill-rule:nonzero;stroke:none"
             d="M 0,0 H 29 V 14 H 0 Z" /><text
             id="text398"
             style="font-variant:normal;font-weight:normal;font-size:12px;font-family:Helvetica;-inkscape-font-specification:Helvetica;writing-mode:lr-tb;fill:#000000;fill-opacity:1;fill-rule:nonzero;stroke:none"
             transform="translate(0,11)"><tspan
               id="tspan396"
               y="0"
               x="0 6.6738281 13.347656 16.681641 19.347656 22.681641">notify</tspan></text>
</g><g
           transform="matrix(2.9966059,0,0,2.9966059,1.4983029,1.4983029)"
           id="g400"><path
             id="path402"
             style="fill:#ffffff;fill-opacity:1;fill-rule:nonzero;stroke:none"
             d="m 101,236 h 70 v 30 h -70 z" /><path
             id="path404"
             style="fill:none;stroke:#b3b3b3;stroke-width:1;stroke-linecap:butt;stroke-linejoin:miter;stroke-miterlimit:10;stroke-dasharray:none;stroke-opacity:1"
             d="m 101,236 h 70 v 30 h -70 z" /></g><g
           transform="matrix(2.9966059,0,0,2.9966059,335.61987,734.16846)"
           id="g406"><text
             id="text410"
             style="font-variant:normal;font-weight:normal;font-size:12px;font-family:Helvetica;-inkscape-font-specification:Helvetica;writing-mode:lr-tb;fill:#000000;fill-opacity:1;fill-rule:nonzero;stroke:none"
             transform="translate(0.96875,11)"><tspan
               id="tspan408"
               y="0"
               x="0 8.0039062 14.677734 21.351562 24.685547 31.359375 38.033203 41.367188">Add data</tspan></text>
</g><g
           transform="scale(2.9966059)"
           id="g412"><path
             id="path414"
             style="fill:none;stroke:#000000;stroke-width:1;stroke-linecap:butt;stroke-linejoin:miter;stroke-miterlimit:10;stroke-dasharray:none;stroke-opacity:1"
             d="m 571,381 c 4.66669,0 7,10.17667 7,30.53" /><path
             id="path416"
             style="fill:none;stroke:#000000;stroke-width:1;stroke-linecap:butt;stroke-linejoin:miter;stroke-miterlimit:10;stroke-dasharray:none;stroke-opacity:1"
             d="m 575.33002,405.76001 2.66998,8 2.66998,-8" /><path
             id="path418"
             style="fill:#000000;fill-opacity:1;fill-rule:nonzero;stroke:none"
             d="m 550,346.53 c 0,-1.98593 -0.17993,-3.9242 -0.53986,-5.81479 l 1.96473,-0.37396 C 551.80829,342.35538 552,344.41827 552,346.53 Z m -2.15857,-11.34409 c -0.70648,-1.76407 -1.58643,-3.48416 -2.63995,-5.16028 l 1.69323,-1.06433 c 1.11774,1.77832 2.05219,3.60538 2.80341,5.48114 z m -6.16595,-9.88064 c -1.2193,-1.39887 -2.5727,-2.76444 -4.06025,-4.09668 l 1.33423,-1.48987 c 1.54914,1.38736 2.96039,2.81149 4.23371,4.27246 z m -8.6825,-7.81729 c -1.53326,-1.1157 -3.17035,-2.20554 -4.91131,-3.26954 l 1.04296,-1.70654 c 1.78669,1.09195 3.46839,2.21158 5.04511,3.35889 z m -10.05615,-6.18036 c -1.70575,-0.89542 -3.49152,-1.77033 -5.35742,-2.62467 l 0.83264,-1.81842 c 1.89837,0.86923 3.71649,1.76001 5.45434,2.67227 z m -10.81793,-4.97431 c -1.78299,-0.72168 -3.62879,-1.42743 -5.53736,-2.11722 l 0.67981,-1.88092 c 1.93198,0.69828 3.80127,1.41303 5.60791,2.14426 z m -11.28754,-4.0856 c -1.80655,-0.586 -3.66321,-1.15945 -5.56995,-1.72037 l 0.56446,-1.9187 c 1.9237,0.56592 3.79788,1.14481 5.62256,1.73667 z m -11.43954,-3.3652 c -1.86777,-0.49866 -3.77894,-0.98636 -5.73349,-1.46308 l 0.47393,-1.94305 c 1.96756,0.47995 3.8927,0.97122 5.77542,1.47382 z m -11.4993,-2.8097 c -1.96128,-0.4385 -3.96332,-0.86697 -6.0062,-1.2854 l 0.40131,-1.95935 c 2.05276,0.42041 4.06653,0.85141 6.04129,1.29297 z m -11.76993,-2.41873 c -1.91184,-0.36081 -3.85684,-0.71338 -5.83496,-1.05767 l 0.34295,-1.9704 c 1.98758,0.34591 3.94187,0.70016 5.86292,1.06274 z m -11.866,-2.06524 c -1.9324,-0.30976 -3.89429,-0.61206 -5.88565,-0.90692 l 0.29297,-1.97846 c 1.99759,0.29581 3.96732,0.59934 5.90921,0.91058 z m -11.71612,-1.73737 c -1.97434,-0.27042 -3.97196,-0.53335 -5.99289,-0.78882 l 0.25085,-1.98419 c 2.02872,0.2565 4.03317,0.52033 6.0134,0.7915 z m -12.08899,-1.52902 -5.79239,-0.64954 0.2229,-1.98755 5.79239,0.64954 z m -11.70447,-1.26224 -6.06445,-0.57919 0.19012,-1.99097 6.06445,0.57919 z m -12.10919,-1.11011 -5.83634,-0.47131 0.16101,-1.99353 5.83634,0.47131 z m -11.77564,-0.91183 -6.06781,-0.4115 0.13532,-1.99542 6.06781,0.4115 z m -12.17041,-0.78833 -5.83612,-0.32745 0.11206,-1.99689 5.83612,0.32745 z m -11.76144,-0.62866 -6.03513,-0.276 0.0914,-1.99793 6.03513,0.276 z m -12.16016,-0.52591 -5.93793,-0.21454 0.0722,-1.99872 5.93793,0.21454 z m -11.8233,-0.40152 -5.98029,-0.16492 0.0551,-1.99927 5.98028,0.16492 -0.0551,1.99927 z m -12.03897,-0.30731 -6.15308,-0.12021 0.0391,-1.99964 6.15308,0.12021 z m -12.02127,-0.21296 -5.91239,-0.0726 0.0246,-1.99988 5.91238,0.0726 -0.0246,1.99987 z m -11.89362,-0.12567 -6.0636,-0.0335 0.011,-1.99993 6.0636,0.0334 -0.011,2 z m -12.19778,-0.0475 -1.32556,-4.6e-4 6.7e-4,-2 1.32556,4.6e-4 z" /><path
             id="path420"
             style="fill:none;stroke:#000000;stroke-width:1;stroke-linecap:butt;stroke-linejoin:miter;stroke-miterlimit:10;stroke-dasharray:none;stroke-opacity:1"
             d="m 548.33002,340.76001 2.66998,8 2.66998,-8" /><path
             id="path422"
             style="fill:none;stroke:#000000;stroke-width:1;stroke-linecap:butt;stroke-linejoin:miter;stroke-miterlimit:10;stroke-dasharray:none;stroke-opacity:1"
             d="m 303.23999,278.32999 -8,2.67001 8,2.67001" /></g><g
           transform="matrix(2.9966059,0,0,2.9966059,1060.7985,833.05646)"
           id="g424"><path
             id="path426"
             style="fill:#ffffff;fill-opacity:1;fill-rule:nonzero;stroke:none"
             d="M 0,0 H 103 V 28 H 0 Z" /><text
             id="text430"
             style="font-variant:normal;font-weight:normal;font-size:12px;font-family:Helvetica;-inkscape-font-specification:Helvetica;writing-mode:lr-tb;fill:#000000;fill-opacity:1;fill-rule:nonzero;stroke:none"
             transform="translate(0,11)"><tspan
               id="tspan428"
               y="0"
               x="0 6.6738281 13.347656 19.347656 26.021484 32.695312 39.369141 42.703125 46.699219 53.373047 56.707031 63.380859 67.376953 74.050781 80.724609 86.724609 93.398438 99.398438">decode references </tspan></text>
<text
             id="text434"
             style="font-variant:normal;font-weight:normal;font-size:12px;font-family:Helvetica;-inkscape-font-specification:Helvetica;writing-mode:lr-tb;fill:#000000;fill-opacity:1;fill-rule:nonzero;stroke:none"
             transform="translate(3.34375,25)"><tspan
               id="tspan432"
               y="0"
               x="0 3.3339844 10.007812 13.341797 20.015625 24.011719 30.685547 36.685547 39.351562 46.025391 52.699219 58.699219 62.033203 68.707031 71.373047 78.046875 84.046875 90.046875">to previous blocks</tspan></text>
</g><g
           transform="matrix(2.9966059,0,0,2.9966059,1.4983029,1.4983029)"
           id="g436"><path
             id="path438"
             style="fill:#ffffff;fill-opacity:1;fill-rule:nonzero;stroke:none"
             d="m 531,351 h 80 v 30 h -80 z" /><path
             id="path440"
             style="fill:none;stroke:#b3b3b3;stroke-width:1;stroke-linecap:butt;stroke-linejoin:miter;stroke-miterlimit:10;stroke-dasharray:none;stroke-opacity:1"
             d="m 531,351 h 80 v 30 h -80 z" /></g><g
           transform="matrix(2.9966059,0,0,2.9966059,1597.1909,1057.8019)"
           id="g442"><text
             id="text446"
             style="font-variant:normal;font-weight:normal;font-size:12px;font-family:Helvetica;-inkscape-font-specification:Helvetica;writing-mode:lr-tb;fill:#000000;fill-opacity:1;fill-rule:nonzero;stroke:none"
             transform="translate(27.328125,11)"><tspan
               id="tspan444"
               y="0"
               x="0 8.0039062 14.677734">Add</tspan></text>
<text
             id="text450"
             style="font-variant:normal;font-weight:normal;font-size:12px;font-family:Helvetica;-inkscape-font-specification:Helvetica;writing-mode:lr-tb;fill:#000000;fill-opacity:1;fill-rule:nonzero;stroke:none"
             transform="translate(8.65625,25)"><tspan
               id="tspan448"
               y="0"
               x="0 3.3339844 7.3300781 14.003906 20.677734 26.677734 33.351562 39.351562 42.685547 45.351562 52.025391">transaction</tspan></text>
</g><g
           transform="matrix(2.9966059,0,0,2.9966059,2223.4814,11.986424)"
           id="g452"><text
             id="text456"
             style="font-variant:normal;font-weight:normal;font-size:21px;font-family:Helvetica;-inkscape-font-specification:Helvetica;writing-mode:lr-tb;fill:#000000;fill-opacity:1;fill-rule:nonzero;stroke:none"
             transform="translate(0,19)"><tspan
               id="tspan454"
               y="0"
               x="0 11.679199 23.358398 35.037598 46.716797 58.395996">Legend</tspan></text>
</g><g
           transform="scale(2.9966059)"
           id="g458"><path
             id="path460"
             style="fill:#000000;fill-opacity:1;fill-rule:nonzero;stroke:none"
             d="m 722.5,65 h 6 v 2 h -6 m 12,-2 h 6 v 2 h -6 m 12,-2 h 6 v 2 h -6" /></g><g
           transform="matrix(2.9966059,0,0,2.9966059,2313.3796,161.81671)"
           id="g462"><text
             id="text466"
             style="font-variant:normal;font-weight:normal;font-size:16px;font-family:Helvetica;-inkscape-font-specification:Helvetica;writing-mode:lr-tb;fill:#000000;fill-opacity:1;fill-rule:nonzero;stroke:none"
             transform="translate(0,14)"><tspan
               id="tspan464"
               y="0"
               x="0 8.8984375 17.796875 22.242188 31.140625 39.140625 48.039062">dataow</tspan></text>
</g><g
           transform="scale(2.9966059)"
           id="g468"><path
             id="path470"
             style="fill:none;stroke:#000000;stroke-width:1;stroke-linecap:butt;stroke-linejoin:miter;stroke-miterlimit:10;stroke-dasharray:none;stroke-opacity:1"
             d="m 722.5,96 h 35" /></g><g
           transform="matrix(2.9966059,0,0,2.9966059,2313.3796,251.71489)"
           id="g472"><text
             id="text476"
             style="font-variant:normal;font-weight:normal;font-size:16px;font-family:Helvetica;-inkscape-font-specification:Helvetica;writing-mode:lr-tb;fill:#000000;fill-opacity:1;fill-rule:nonzero;stroke:none"
             transform="translate(0,14)"><tspan
               id="tspan474"
               y="0"
               x="0 8.8984375 17.796875 26.695312 35.59375 40.039062 48.9375 53.382812 57.828125 66.726562 75.625 80.070312">update data</tspan></text>
<text
             id="text480"
             style="font-variant:normal;font-weight:normal;font-size:16px;font-family:Helvetica;-inkscape-font-specification:Helvetica;writing-mode:lr-tb;fill:#000000;fill-opacity:1;fill-rule:nonzero;stroke:none"
             transform="translate(0,33)"><tspan
               id="tspan478"
               y="0"
               x="0 8 12.445312 17.773438 26.671875 34.671875 39.117188 48.015625 53.34375">structure</tspan></text>
</g></g></g></g></svg>